<?xml version="1.0" encoding="utf-8"?>
<!-- Generator: Adobe Illustrator 16.0.0, SVG Export Plug-In . SVG Version: 6.00 Build 0)  -->
<!DOCTYPE svg PUBLIC "-//W3C//DTD SVG 1.1//EN" "http://www.w3.org/Graphics/SVG/1.1/DTD/svg11.dtd">
<svg version="1.1" id="Layer_1" xmlns="http://www.w3.org/2000/svg" xmlns:xlink="http://www.w3.org/1999/xlink" x="0px" y="0px"
	 width="405px" height="121.35px" viewBox="0 0 405 121.35" enable-background="new 0 0 405 121.35" xml:space="preserve">
<g opacity="0.9" enable-background="new    ">
	<path fill="#FEFCFD" d="M171.091,36.098v7.615H157.14v37.182h-8.64V43.713h-13.951v-7.615H171.091z"/>
	<path fill="#FEFCFD" d="M185.749,36.098v19.135h22.334V36.098h8.575v44.797h-8.575V62.72h-22.334v18.175h-8.576V36.098H185.749z"/>
	<path fill="#FEFCFD" d="M255.763,80.895l-7.743-13.247c-0.512,0.064-1.024,0.064-1.6,0.064h-10.111v13.183h-8.576V36.098h18.688
		c11.582,0,18.174,5.567,18.174,15.423c0,7.04-3.136,12.096-8.895,14.527l9.854,14.847H255.763z M236.309,60.16h10.111
		c6.398,0,9.982-2.752,9.982-8.384c0-5.503-3.584-8.191-9.982-8.191h-10.111V60.16z"/>
	<path fill="#FEFCFD" d="M282.58,36.098v44.797h-8.576V36.098H282.58z"/>
	<path fill="#FEFCFD" d="M297.428,36.098l13.184,35.262l13.311-35.262h8.832l-17.92,44.797h-8.895l-17.727-44.797H297.428z"/>
	<path fill="#FEFCFD" d="M371.281,36.098v7.487h-24.254v11.071h21.758v7.487h-21.758v11.264h25.021v7.487h-33.598V36.098H371.281z"
		/>
</g>
<path opacity="0.9" fill="#FFFFFF" enable-background="new    " d="M57.207,104.548L10.31,68.091L0,76.107l57.269,44.543
	l57.269-44.543l-10.371-8.086L57.207,104.548z M57.269,88.384l46.83-36.459l10.439-8.082L57.269-0.699L0,43.843l10.372,8.082
	L57.269,88.384z"/>
</svg>
